Moton_kv03_j
version=1
nRows=6
nColumns=43
inDegrees=yes
endheader
time	pelvis_tilt	pelvis_list	pelvis_rotation	pelvis_tx	pelvis_ty	pelvis_tz	hip_flexion_r	hip_adduction_r	hip_rotation_r	knee_angle_r	ankle_angle_r	subtalar_angle_r	mtp_angle_r	hip_flexion_l	hip_adduction_l	hip_rotation_l	knee_angle_l	ankle_angle_l	subtalar_angle_l	mtp_angle_l	lumbar_extension	lumbar_bending	lumbar_rotation	neck_flexion	neck_lateral_bending	neck_rotation	arm_flex_r	arm_add_r	arm_rot_r	elbow_flex_r	pro_sup_r	wrist_flex_r	wrist_dev_r	hand_finger_flex_r	arm_flex_l	arm_add_l	arm_rot_l	elbow_flex_l	pro_sup_l	wrist_flex_l	wrist_dev_l	hand_finger_flex_l
      1.48500000	      0.41687613	     15.56068972	    -90.83663915	     -0.04522140	      0.88435381	      0.66006629	    -12.67725301	     -4.93604557	    -12.11559206	    -10.63986978	     -2.48164125	     23.04827624	     48.27221488	    -11.77701106	     -6.85331274	    -11.59134048	    -11.65847334	    -10.26860344	     32.05228319	     58.31194046	    -15.52671082	     -2.07951817	      0.45050298	     -8.62326283	      2.41825815	     -2.97069229	     12.20812403	    -44.37758917	      2.60866780	    110.54113394	    147.60118193	     -2.39762062	    -11.41953779	     49.28632093	      6.23350317	    -40.31097996	     -7.63892533	    111.21056382	    156.52066677	     -9.86809146	     -7.68165579	     20.80279755
      1.48750000	      0.42864932	     15.58495111	    -90.83483713	     -0.04528767	      0.88487499	      0.65890448	    -12.56465673	     -4.93918529	    -12.14105553	    -10.64058329	     -2.53781702	     23.02897964	     48.24313268	    -11.66871926	     -6.85080875	    -11.65045746	    -11.64927123	    -10.29361036	     32.04443073	     58.27944619	    -15.61526362	     -2.09686150	      0.43640155	     -8.36513698	      2.37683444	     -2.94072412	     12.47185071	    -44.20201708	      2.63236311	    110.39830740	    147.63006980	     -2.42197165	    -11.40412863	     49.33572456	      6.54289740	    -40.27859657	     -7.54686239	    111.07956349	    156.52544508	     -9.84174556	     -7.68242544	     20.87602382
      1.49000000	      0.42642079	     15.58517296	    -90.84005613	     -0.04522634	      0.88519148	      0.65831772	    -12.53219312	     -4.93979720	    -12.14418896	    -10.62267426	     -2.53823901	     23.02718835	     48.24062513	    -11.63783395	     -6.84495240	    -11.65521418	    -11.63346609	    -10.29407500	     32.04491064	     58.27638874	    -15.66372960	     -2.09317201	      0.43188188	     -8.36307081	      2.37662205	     -2.93917076	     12.50092159	    -44.21209526	      2.61824127	    110.38067591	    147.63411889	     -2.42271941	    -11.40096768	     49.34242938	      6.56414368	    -40.28906513	     -7.54658501	    111.06168248	    156.52608886	     -9.83723127	     -7.68091443	     20.88455543
      1.49250000	      0.43998823	     15.59940296	    -90.83206362	     -0.04519324	      0.88577691	      0.65699293	    -12.39392834	     -4.95680532	    -12.13221041	    -10.67617532	     -2.58785208	     23.00502758	     48.20146679	    -11.49122999	     -6.84003902	    -11.65446675	    -11.69824827	    -10.34605940	     32.04235911	     58.22781041	    -15.76420069	     -2.09931202	      0.42715822	     -8.10531531	      2.34987921	     -2.91271784	     12.87305995	    -44.14823258	      2.73377281	    110.17866362	    147.68098691	     -2.38127265	    -11.41297093	     49.46255957	      6.97853412	    -40.31090426	     -7.35669633	    110.85420389	    156.52605708	     -9.73294098	     -7.69575492	     21.03825331
      1.49500000	      0.43784894	     15.61355490	    -90.83845035	     -0.04519301	      0.88613573	      0.65618141	    -12.34078477	     -4.95308958	    -12.13902005	    -10.64108537	     -2.58399528	     22.99956019	     48.19494193	    -11.43940943	     -6.83541755	    -11.65759103	    -11.67042183	    -10.34344452	     32.03900453	     58.21956412	    -15.82713018	     -2.09529135	      0.43185713	     -8.11800996	      2.35076005	     -2.91267498	     12.97108607	    -44.13954526	      2.72284020	    110.19235907	    147.68426948	     -2.38380506	    -11.41714133	     49.48395283	      7.06768516	    -40.31769566	     -7.34900765	    110.85867641	    156.52178299	     -9.72451835	     -7.69807659	     21.06567438
      1.49750000	      0.43282697	     15.64201633	    -90.84975915	     -0.04533206	      0.88656949	      0.65512127	    -12.26155018	     -4.94481702	    -12.15901240	    -10.58718339	     -2.58164579	     22.99367267	     48.18318883	    -11.35868277	     -6.83619495	    -11.66760519	    -11.64276765	    -10.33925805	     32.02947035	     58.20516368	    -15.89715255	     -2.08803756	      0.45081072	     -8.05245820	      2.34713318	     -2.91225209	     13.16241168	    -44.09185980	      2.72927302	    110.12593469	    147.69685053	     -2.37190482	    -11.41606475	     49.52175719	      7.25459672	    -40.32442691	     -7.31647619	    110.78164844	    156.51889026	     -9.68130704	     -7.69462541	     21.12331111
